<svg width="329" height="242" viewBox="0 0 329 242" fill="none" xmlns="http://www.w3.org/2000/svg">
<path fill-rule="evenodd" clip-rule="evenodd" d="M118.95 218.123C127.197 222.186 138.609 226.505 144.309 227.722C148.569 228.631 152.002 229.254 155.115 229.617C160.906 233.095 167.135 235.559 173.41 236.693C181.505 238.155 180.936 239.955 171.992 241.176C161.767 242.573 156.328 242.287 144.309 239.722C138.609 238.505 127.197 234.186 118.95 230.123C107.059 224.265 101.43 220.227 91.7563 210.611C69.5944 188.582 62.1732 168.45 59.7549 123.796C57.7873 87.4672 54.0824 72.8946 42.9627 57.7482C35.823 48.023 24.4431 41.983 10.6914 40.62L5.42467 40.0981C3.57164 39.9144 2.95311 37.5206 4.48523 36.4622L7.1756 34.6038C9.85948 32.75 12.7166 30.996 15.728 29.3474C27.2188 31.5488 36.7145 37.2373 42.9627 45.7482C54.0824 60.8946 57.7873 75.4672 59.7549 111.796C62.1732 156.45 69.5944 176.582 91.7563 198.611C101.43 208.227 107.059 212.265 118.95 218.123ZM268.822 142.439C277.072 142.933 284.816 142.094 291.759 139.99C293.582 140.355 295.456 140.7 297.389 141.03L304.189 142.193C305.999 142.502 306.47 144.882 304.916 145.858L303.767 146.58C294.296 152.526 282.227 155.241 268.822 154.439C254.658 153.592 245.408 149.486 232.237 138.198C218.881 126.752 210.737 123.681 200.911 126.385C195.087 127.987 191.386 131.408 189.874 136.294C187.31 124.951 191.095 117.086 200.911 114.385C210.737 111.681 218.881 114.752 232.237 126.198C245.408 137.486 254.658 141.592 268.822 142.439ZM314.093 209.093C315.399 208.882 316.623 208.646 317.752 208.382C334.858 204.387 332.663 208.526 309.237 224.434C285.094 240.83 252.424 246.284 233.557 237.067C221.282 231.071 213.627 224.111 194.858 201.88C173.812 176.954 167.795 171.048 159.715 167.392C151.564 163.704 144.732 163.541 136.463 166.838C130.8 169.096 127.24 172.826 125.808 177.9C123.409 166.496 126.998 158.612 136.463 154.838C144.732 151.541 151.564 151.704 159.715 155.392C167.795 159.048 173.812 164.954 194.858 189.88C213.627 212.111 221.282 219.071 233.557 225.067C252.424 234.284 285.094 228.83 309.237 212.434C310.972 211.256 312.59 210.143 314.093 209.093Z" fill="black" fill-opacity="0.05"/>
<path fill-rule="evenodd" clip-rule="evenodd" d="M118.95 218.123C127.197 222.186 138.609 226.505 144.309 227.722C154.964 229.996 160.447 230.479 168.677 229.586C170.248 230.036 171.828 230.407 173.41 230.693C181.505 232.155 180.936 233.955 171.992 235.176C161.767 236.573 156.328 236.287 144.309 233.722C138.609 232.505 127.197 228.186 118.95 224.123C107.059 218.265 101.43 214.227 91.7563 204.611C69.5944 182.582 62.1732 162.45 59.7549 117.796C57.7873 81.4672 54.0824 66.8946 42.9627 51.7482C35.823 42.023 24.4431 35.983 10.6914 34.62L5.42467 34.098C3.57164 33.9144 2.95311 31.5205 4.48523 30.4622L7.1756 28.6038C7.3161 28.5068 7.45708 28.41 7.59853 28.3135L10.6914 28.62C24.4431 29.983 35.823 36.023 42.9627 45.7482C54.0824 60.8946 57.7873 75.4672 59.7549 111.796C62.1732 156.45 69.5944 176.582 91.7563 198.611C101.43 208.227 107.059 212.265 118.95 218.123ZM268.822 142.439C281.293 143.185 292.607 140.888 301.749 135.776L304.189 136.193C305.999 136.502 306.47 138.882 304.916 139.858L303.767 140.58C294.296 146.526 282.227 149.241 268.822 148.439C254.658 147.592 245.408 143.486 232.237 132.198C218.881 120.752 210.737 117.681 200.911 120.385C194.084 122.263 190.174 126.639 189.289 132.946C188.141 123.406 192.092 116.811 200.911 114.385C210.737 111.681 218.881 114.752 232.237 126.198C245.408 137.486 254.658 141.592 268.822 142.439ZM324.792 201.068C333.499 200.134 328.682 205.229 309.237 218.434C285.094 234.83 252.424 240.283 233.557 231.067C221.282 225.071 213.627 218.111 194.858 195.88C173.812 170.954 167.795 165.048 159.715 161.392C151.564 157.704 144.732 157.541 136.463 160.838C129.848 163.476 126.103 168.121 125.267 174.573C124.189 164.954 127.948 158.233 136.463 154.838C144.732 151.541 151.564 151.704 159.715 155.392C167.795 159.048 173.812 164.954 194.858 189.88C213.627 212.111 221.282 219.071 233.557 225.067C252.424 234.283 285.094 228.83 309.237 212.434C316.375 207.587 321.541 203.833 324.792 201.068Z" fill="black" fill-opacity="0.15"/>
<path d="M144.309 227.722C138.609 226.505 127.197 222.186 118.95 218.123C107.059 212.265 101.43 208.227 91.7563 198.611C69.5944 176.582 62.1732 156.45 59.7549 111.796C57.7873 75.4672 54.0824 60.8946 42.9627 45.7482C35.823 36.023 24.4431 29.983 10.6914 28.62L5.42466 28.0981C3.57163 27.9144 2.9531 25.5206 4.48522 24.4622L7.1756 22.6039C26.2188 9.44979 53.9819 1.32536 83.7153 0.205707C111.151 -0.827408 127.22 1.93138 145.106 10.7456C163.053 19.5896 177.26 32.2263 203.752 62.9113C246.031 111.881 261.667 122.922 297.389 129.03L304.189 130.193C305.999 130.502 306.47 132.882 304.916 133.858L303.767 134.58C294.296 140.526 282.227 143.241 268.822 142.439C254.658 141.592 245.408 137.486 232.237 126.198C218.881 114.752 210.737 111.681 200.911 114.385C187.872 117.972 185.475 130.671 194.464 148.53C204.495 168.46 225.191 184.969 250.348 193.11C266.73 198.411 301.779 200.113 317.752 196.382C334.858 192.387 332.663 196.526 309.237 212.434C285.094 228.83 252.424 234.284 233.557 225.067C221.282 219.071 213.627 212.111 194.858 189.88C173.812 164.954 167.795 159.048 159.715 155.392C151.564 151.704 144.732 151.541 136.463 154.838C124.029 159.796 121.736 171.847 129.838 189.655C137.872 207.313 155.449 221.447 173.41 224.693C181.505 226.155 180.936 227.955 171.992 229.176C161.767 230.573 156.328 230.287 144.309 227.722Z" fill="#FAFAFA"/>
</svg>
